<?xml version="1.0" encoding="UTF-8" standalone="no"?>
<!-- Generator: Adobe Illustrator 18.1.1, SVG Export Plug-In . SVG Version: 6.00 Build 0)  -->

<svg
   xmlns:dc="http://purl.org/dc/elements/1.1/"
   xmlns:cc="http://creativecommons.org/ns#"
   xmlns:rdf="http://www.w3.org/1999/02/22-rdf-syntax-ns#"
   xmlns:svg="http://www.w3.org/2000/svg"
   xmlns="http://www.w3.org/2000/svg"
   xmlns:sodipodi="http://sodipodi.sourceforge.net/DTD/sodipodi-0.dtd"
   xmlns:inkscape="http://www.inkscape.org/namespaces/inkscape"
   version="1.1"
   id="Layer_1"
   x="0px"
   y="0px"
   viewBox="0 0 600 280"
   enable-background="new 0 0 600 280"
   xml:space="preserve"
   inkscape:version="0.91 r13725"
   sodipodi:docname="townheader.svg"><metadata
     id="metadata113"><rdf:RDF><cc:Work
         rdf:about=""><dc:format>image/svg+xml</dc:format><dc:type
           rdf:resource="http://purl.org/dc/dcmitype/StillImage" /></cc:Work></rdf:RDF></metadata><defs
     id="defs111" /><sodipodi:namedview
     pagecolor="#ffffff"
     bordercolor="#666666"
     borderopacity="1"
     objecttolerance="10"
     gridtolerance="10"
     guidetolerance="10"
     inkscape:pageopacity="0"
     inkscape:pageshadow="2"
     inkscape:window-width="1440"
     inkscape:window-height="837"
     id="namedview109"
     showgrid="false"
     inkscape:zoom="16.96"
     inkscape:cx="309.89964"
     inkscape:cy="220.0054"
     inkscape:window-x="-8"
     inkscape:window-y="-8"
     inkscape:window-maximized="1"
     inkscape:current-layer="Layer_1" /><g
     id="g3"><g
       id="g5"><path
         fill="#FFC122"
         d="M346.2,26.8c26.9,0,53.8,0,80.7,0c42.9,0,85.8,0,128.7,0c9.9,0,19.8,0,29.6,0c-0.6-0.6-1.3-1.3-1.9-1.9    c0,27.3,0,54.7,0,82c0,43.2,0,86.4,0,129.6c0,10,0,20,0,30c0.6-0.6,1.3-1.3,1.9-1.9c-18.9,0-37.8,0-56.7,0c-45.4,0-90.8,0-136.1,0    c-54.9,0-109.8,0-164.7,0c-47.6,0-95.2,0-142.9,0c-15.6,0-31.3,0-46.9,0c-4.9,0-9.8,0-14.7,0c-2.2,0-5.5-0.6-7.6,0    c-0.3,0.1-0.7,0-1,0c0.6,0.6,1.3,1.3,1.9,1.9c0-27.3,0-54.7,0-82c0-43.2,0-86.4,0-129.6c0-10,0-20,0-30c-0.6,0.6-1.3,1.3-1.9,1.9    c46.4,0,92.7,0,139.1,0c6.7,0,13.3,0,20,0c2.5,0,2.5-3.8,0-3.8c-46.4,0-92.7,0-139.1,0c-6.7,0-13.3,0-20,0c-1,0-1.9,0.9-1.9,1.9    c0,27.3,0,54.7,0,82c0,43.2,0,86.4,0,129.6c0,10,0,20,0,30c0,1,0.9,1.9,1.9,1.9c18.9,0,37.8,0,56.7,0c45.4,0,90.8,0,136.1,0    c54.9,0,109.8,0,164.7,0c47.6,0,95.2,0,142.9,0c15.6,0,31.3,0,46.9,0c7.3,0,15,0.8,22.3,0c0.3,0,0.6,0,1,0c1,0,1.9-0.9,1.9-1.9    c0-27.3,0-54.7,0-82c0-43.2,0-86.4,0-129.6c0-10,0-20,0-30c0-1-0.9-1.9-1.9-1.9c-26.9,0-53.8,0-80.7,0c-42.9,0-85.8,0-128.7,0    c-9.9,0-19.8,0-29.6,0C343.8,22.9,343.8,26.8,346.2,26.8L346.2,26.8z"
         id="path7" /></g></g><path
     fill="#FFFFFF"
     d="M431.1,101.1c0,2-0.5,3.9-1.5,5.6c-1.6,2.7-4.3,4.7-7.5,5.3c-0.4,0.1-0.9,0.1-1.3,0.1H355c-0.3,0-0.7,0-1,0  c-0.3,0-0.7,0-1,0c-6.1,0-11.1-5-11.1-11.1c0-6.1,5-11.1,11.1-11.1c0.6,0,1.2,0,1.7,0.1c-0.4-2.6-0.2-5.3,0.6-8  c2.9-10.1,13.5-15.9,23.6-13c5.1,1.5,9.1,4.9,11.5,9.3c2.4-1.5,5.2-2.3,8.3-2.3c8.6,0,15.7,6.9,15.9,15.5c1.6-0.9,3.5-1.5,5.6-1.5  C426.1,90,431.1,95,431.1,101.1z"
     id="path9" /><path
     fill="#FFFFFF"
     d="M564.2,44.9c0,2-0.5,3.9-1.5,5.6c-1.6,2.7-4.3,4.7-7.5,5.3c-0.4,0.1-0.9,0.1-1.3,0.1h-65.8c-0.3,0-0.7,0-1,0  c-0.3,0-0.7,0-1,0c-6.1,0-11.1-5-11.1-11.1c0-6.1,5-11.1,11.1-11.1c0.6,0,1.2,0,1.7,0.1c-0.4-2.6-0.2-5.3,0.6-8  c2.9-10.1,13.5-15.9,23.6-13c5.1,1.5,9.1,4.9,11.5,9.3c2.4-1.5,5.2-2.3,8.3-2.3c8.6,0,15.7,6.9,15.9,15.5c1.6-0.9,3.5-1.5,5.6-1.5  C559.2,33.8,564.2,38.8,564.2,44.9z"
     id="path11" /><path
     fill="#FFFFFF"
     d="M227.1,72.7c0,2-0.5,3.9-1.5,5.6c-1.6,2.7-4.3,4.7-7.5,5.3c-0.4,0.1-0.9,0.1-1.3,0.1H151c-0.3,0-0.7,0-1,0  c-0.3,0-0.7,0-1,0c-6.1,0-11.1-5-11.1-11.1c0-6.1,5-11.1,11.1-11.1c0.6,0,1.2,0,1.7,0.1c-0.4-2.6-0.2-5.3,0.6-8  c2.9-10.1,13.5-15.9,23.6-13c5.1,1.5,9.1,4.9,11.5,9.3c2.4-1.5,5.2-2.3,8.3-2.3c8.6,0,15.7,6.9,15.9,15.5c1.6-0.9,3.5-1.5,5.6-1.5  C222.1,61.6,227.1,66.6,227.1,72.7z"
     id="path13" /><line
     fill="none"
     stroke="#FFC122"
     stroke-width="1.1372"
     stroke-miterlimit="10"
     x1="230.2"
     y1="247.3"
     x2="264.5"
     y2="247.3"
     id="line15" /><line
     fill="none"
     stroke="#FFC122"
     stroke-width="1.1372"
     stroke-miterlimit="10"
     x1="230.2"
     y1="247.9"
     x2="264.7"
     y2="247.9"
     id="line17" /><polyline
     fill="#FFC122"
     points="218,267.9 218,143.3 277.2,143.3 277.2,267.2 "
     id="polyline19" /><rect
     x="247.9"
     y="39"
     fill="#62D4D4"
     width="43.1"
     height="14.9"
     id="rect21" /><path
     fill="#205D76"
     d="M249.8,76.5c0,22.6-1,41-1.7,41c-0.7,0-1.7-18.4-1.7-41s1-41,1.7-41C248.7,35.5,249.8,53.9,249.8,76.5z"
     id="path23" /><circle
     fill="#205D76"
     cx="248"
     cy="36"
     r="2"
     id="circle25" /><circle
     fill="#205D76"
     cx="248"
     cy="56.1"
     r="2.2"
     id="circle27" /><polygon
     fill="#62D4D4"
     points="339.5,61.5 290.3,61.5 290.3,46.6 339.5,46.6 326.7,54.4 "
     id="polygon29" /><g
     id="g41"><path
       fill="#205D76"
       d="M299.9,55.8c0.3,0,0.6,0,0.9-0.1v0.9c-0.1,0.1-0.3,0.1-0.5,0.1c-0.2,0-0.4,0.1-0.6,0.1   c-1.1,0-1.7-0.6-1.7-1.8v-3h-0.8v-0.5l0.8-0.4l0.4-1.2h0.7v1.2h1.6V52h-1.6v3c0,0.3,0.1,0.5,0.2,0.6   C299.5,55.8,299.7,55.8,299.9,55.8z"
       id="path43" /><path
       fill="#205D76"
       d="M306.9,53.9c0,0.9-0.2,1.6-0.7,2.1c-0.5,0.5-1.1,0.8-2,0.8c-0.5,0-1-0.1-1.4-0.4c-0.4-0.2-0.7-0.6-0.9-1   c-0.2-0.4-0.3-1-0.3-1.5c0-0.9,0.2-1.6,0.7-2.1c0.5-0.5,1.1-0.8,2-0.8c0.8,0,1.4,0.3,1.9,0.8S306.9,53,306.9,53.9z M302.8,53.9   c0,1.3,0.5,1.9,1.4,1.9c0.9,0,1.4-0.6,1.4-1.9c0-1.3-0.5-1.9-1.4-1.9c-0.5,0-0.9,0.2-1.1,0.5C302.9,52.8,302.8,53.3,302.8,53.9z"
       id="path45" /><path
       fill="#205D76"
       d="M312.8,56.7l-0.7-2.6c-0.1-0.3-0.2-0.9-0.5-1.9h0c-0.2,0.9-0.4,1.6-0.5,1.9l-0.7,2.6h-1.3l-1.6-5.6h1.2   l0.7,2.8c0.2,0.7,0.3,1.3,0.3,1.7h0c0-0.2,0.1-0.5,0.2-0.8c0.1-0.3,0.1-0.6,0.2-0.7l0.8-2.9h1.3l0.8,2.9c0.1,0.2,0.1,0.4,0.2,0.8   c0.1,0.3,0.1,0.6,0.1,0.8h0c0.1-0.4,0.2-1,0.4-1.7l0.7-2.8h1.2l-1.6,5.6H312.8z"
       id="path47" /><path
       fill="#205D76"
       d="M321.6,56.7h-1.2v-3.4c0-0.4-0.1-0.8-0.3-1c-0.2-0.2-0.4-0.3-0.8-0.3c-0.5,0-0.9,0.1-1.1,0.4   c-0.2,0.3-0.3,0.8-0.3,1.5v2.8h-1.2v-5.6h0.9l0.2,0.7h0.1c0.2-0.3,0.4-0.5,0.7-0.6c0.3-0.1,0.7-0.2,1-0.2c1.3,0,2,0.7,2,2V56.7z"
       id="path49" /></g><ellipse
     fill="#205D76"
     stroke="#205D76"
     stroke-width="0.5794"
     stroke-miterlimit="10"
     cx="248"
     cy="84.1"
     rx="4.9"
     ry="1.3"
     id="ellipse55" /><polygon
     fill="#205D76"
     stroke="#205D76"
     stroke-width="0.5794"
     stroke-miterlimit="10"
     points="248.2,83.9 265.4,113.7   282.6,143.5 248.2,143.5 213.7,143.5 230.9,113.7 "
     id="polygon57" /><ellipse
     fill="#205D76"
     stroke="#205D76"
     stroke-width="0.5794"
     stroke-miterlimit="10"
     cx="247.9"
     cy="104.7"
     rx="15.7"
     ry="2.7"
     id="ellipse59" /><path
     fill="#205D76"
     stroke="#205D76"
     stroke-width="0.7139"
     stroke-miterlimit="10"
     d="M286.2,141.1c0,5.1-17.1,4.3-38.3,4.3  s-38.3,0.7-38.3-4.3s17.1-9.1,38.3-9.1S286.2,136.1,286.2,141.1z"
     id="path61" /><g
     id="g63"><path
       fill="#EA6E2F"
       d="M277.2,175L277.2,175c0,0.1,0,0.2,0,0.3c0,2.6-2.1,4.8-4.8,4.8c-1.8,0-3.3-1-4.1-2.4   c-0.8,1.4-2.4,2.4-4.1,2.4c-1.8,0-3.4-1-4.2-2.6c-0.8,1.5-2.4,2.5-4.2,2.5c-1.8,0-3.4-1-4.2-2.6c-0.8,1.5-2.4,2.5-4.2,2.5   c-1.8,0-3.4-1-4.2-2.6c-0.8,1.6-2.4,2.7-4.3,2.7c-1.8,0-3.3-1-4.1-2.4c-0.8,1.4-2.4,2.4-4.1,2.4c-1.7,0-3.1-0.9-4-2.2   c-0.9,1.2-2.3,1.9-3.8,1.9c-2.6,0-4.8-2.1-4.8-4.8v-4.8h59.2V175z"
       id="path65" /></g><rect
     x="230.7"
     y="193.7"
     fill="#FFFFFF"
     width="34.7"
     height="58.6"
     id="rect67" /><polygon
     fill="#FF5774"
     points="268.6,200.2 227.1,200.2 230.9,192.2 264.9,192.2 "
     id="polygon69" /><line
     fill="none"
     stroke="#FFC122"
     stroke-width="1.1372"
     stroke-miterlimit="10"
     x1="237"
     y1="232.6"
     x2="237"
     y2="253.6"
     id="line71" /><line
     fill="none"
     stroke="#FFC122"
     stroke-width="1.1372"
     stroke-miterlimit="10"
     x1="244.1"
     y1="232.8"
     x2="244.1"
     y2="253.8"
     id="line73" /><line
     fill="none"
     stroke="#FFC122"
     stroke-width="1.1372"
     stroke-miterlimit="10"
     x1="251.5"
     y1="232.6"
     x2="251.5"
     y2="253.6"
     id="line75" /><line
     fill="none"
     stroke="#FFC122"
     stroke-width="1.1372"
     stroke-miterlimit="10"
     x1="258.7"
     y1="232.6"
     x2="258.7"
     y2="253.6"
     id="line77" /><line
     fill="none"
     stroke="#FFC122"
     stroke-width="1.1372"
     stroke-miterlimit="10"
     x1="229.4"
     y1="247.1"
     x2="265.8"
     y2="247.1"
     id="line79" /><line
     fill="none"
     stroke="#FFC122"
     stroke-width="1.1372"
     stroke-miterlimit="10"
     x1="229.8"
     y1="238.1"
     x2="266.2"
     y2="238.1"
     id="line81" /><g
     id="g83"><path
       fill="#FFC122"
       d="M236.7,231c0.2-0.3,0.5-0.3,0.7,0c0.2,0.3,0.5,0.8,0.7,1.1c0.2,0.3,0,0.6-0.3,0.6s-0.9,0-1.3,0   c-0.4,0-0.5-0.3-0.3-0.6C236.2,231.9,236.5,231.4,236.7,231z"
       id="path85" /><path
       fill="none"
       stroke="#FFC122"
       stroke-width="0.7027"
       stroke-miterlimit="10"
       d="M236.7,231c0.2-0.3,0.5-0.3,0.7,0   c0.2,0.3,0.5,0.8,0.7,1.1c0.2,0.3,0,0.6-0.3,0.6s-0.9,0-1.3,0c-0.4,0-0.5-0.3-0.3-0.6C236.2,231.9,236.5,231.4,236.7,231z"
       id="path87" /></g><g
     id="g89"><path
       fill="#FFC122"
       d="M251.2,230.9c0.2-0.3,0.5-0.3,0.7,0c0.2,0.3,0.5,0.8,0.7,1.1c0.2,0.3,0,0.6-0.3,0.6c-0.4,0-0.9,0-1.3,0   c-0.4,0-0.5-0.3-0.3-0.6C250.7,231.7,251,231.2,251.2,230.9z"
       id="path91" /><path
       fill="none"
       stroke="#FFC122"
       stroke-width="0.7027"
       stroke-miterlimit="10"
       d="M251.2,230.9c0.2-0.3,0.5-0.3,0.7,0   c0.2,0.3,0.5,0.8,0.7,1.1c0.2,0.3,0,0.6-0.3,0.6c-0.4,0-0.9,0-1.3,0c-0.4,0-0.5-0.3-0.3-0.6C250.7,231.7,251,231.2,251.2,230.9z"
       id="path93" /></g><g
     id="g95"><path
       fill="#FFC122"
       d="M243.7,230.9c0.2-0.3,0.5-0.3,0.7,0c0.2,0.3,0.5,0.8,0.7,1.1c0.2,0.3,0,0.6-0.3,0.6s-0.9,0-1.3,0   c-0.4,0-0.5-0.3-0.3-0.6C243.3,231.7,243.6,231.2,243.7,230.9z"
       id="path97" /><path
       fill="none"
       stroke="#FFC122"
       stroke-width="0.7027"
       stroke-miterlimit="10"
       d="M243.7,230.9c0.2-0.3,0.5-0.3,0.7,0   c0.2,0.3,0.5,0.8,0.7,1.1c0.2,0.3,0,0.6-0.3,0.6s-0.9,0-1.3,0c-0.4,0-0.5-0.3-0.3-0.6C243.3,231.7,243.6,231.2,243.7,230.9z"
       id="path99" /></g><g
     id="g101"><path
       fill="#FFC122"
       d="M258.4,230.9c0.2-0.3,0.5-0.3,0.7,0c0.2,0.3,0.5,0.8,0.7,1.1c0.2,0.3,0,0.6-0.3,0.6c-0.4,0-0.9,0-1.3,0   c-0.4,0-0.5-0.3-0.3-0.6C257.9,231.7,258.2,231.2,258.4,230.9z"
       id="path103" /><path
       fill="none"
       stroke="#FFC122"
       stroke-width="0.7027"
       stroke-miterlimit="10"
       d="M258.4,230.9c0.2-0.3,0.5-0.3,0.7,0   c0.2,0.3,0.5,0.8,0.7,1.1c0.2,0.3,0,0.6-0.3,0.6c-0.4,0-0.9,0-1.3,0c-0.4,0-0.5-0.3-0.3-0.6C257.9,231.7,258.2,231.2,258.4,230.9z"
       id="path105" /></g><path
     fill="#FFFFFF"
     d="M117.3,128.4c0,2-0.5,3.9-1.5,5.6c-1.6,2.7-4.3,4.7-7.5,5.3c-0.4,0.1-0.9,0.1-1.3,0.1H41.2c-0.3,0-0.7,0-1,0  c-0.3,0-0.7,0-1,0c-6.1,0-11.1-5-11.1-11.1c0-6.1,5-11.1,11.1-11.1c0.6,0,1.2,0,1.7,0.1c-0.4-2.6-0.2-5.3,0.6-8  c2.9-10.1,13.5-15.9,23.6-13c5.1,1.5,9.1,4.9,11.5,9.3c2.4-1.5,5.2-2.3,8.3-2.3c8.6,0,15.7,6.9,15.9,15.5c1.6-0.9,3.5-1.5,5.6-1.5  C112.3,117.3,117.3,122.3,117.3,128.4z"
     id="path107" /><text
     xml:space="preserve"
     style="font-style:normal;font-variant:normal;font-weight:normal;font-stretch:normal;font-size:11.25px;line-height:120.00000477%;font-family:OpenSans-Semibold;-inkscape-font-specification:'OpenSans-Semibold, Normal';text-align:start;letter-spacing:0px;word-spacing:0px;writing-mode:lr-tb;text-anchor:start;fill:#205d76;fill-opacity:1;stroke:none;stroke-width:1px;stroke-linecap:butt;stroke-linejoin:miter;stroke-opacity:1;"
     x="248.5849"
     y="49.811321"
     id="text3441"
     sodipodi:linespacing="120%"><tspan
       sodipodi:role="line"
       id="tspan3443"
       x="248.5849"
       y="49.811321">Fardars</tspan></text>
</svg>